<?xml version="1.0" encoding="utf-8"?>
<!-- Generator: Adobe Illustrator 16.0.0, SVG Export Plug-In . SVG Version: 6.00 Build 0)  -->
<!DOCTYPE svg PUBLIC "-//W3C//DTD SVG 1.1//EN" "http://www.w3.org/Graphics/SVG/1.1/DTD/svg11.dtd">
<svg version="1.1" id="Laag_1" xmlns="http://www.w3.org/2000/svg" xmlns:xlink="http://www.w3.org/1999/xlink" x="0px" y="0px"
	 width="340.157px" height="141.732px" viewBox="0 0 340.157 141.732" enable-background="new 0 0 340.157 141.732"
	 xml:space="preserve">
<g>
	<path fill="rgba(255,255,255,.8)" d="M94.798,43.686c0,15.062,12.362,27.211,27.495,27.211c15.133,0,27.496-12.149,27.496-27.211
		c0-15.559-12.576-27.495-27.496-27.495C107.374,16.191,94.798,28.127,94.798,43.686L94.798,43.686z M104.745,43.614
		c0-9.968,7.791-18.11,17.548-18.11c9.757,0,17.549,8.143,17.549,18.11c0,9.616-7.651,17.97-17.549,17.97
		C112.396,61.584,104.745,53.23,104.745,43.614L104.745,43.614z M58.523,17.257H74.65c6.039,0,9.805,1.137,12.789,3.552
		c2.984,2.416,6.181,6.679,6.181,12.718c0,3.481-1.279,8.952-5.044,12.575c-2.511,2.396-4.93,3.327-7.146,3.931
		c-0.543,0.148-0.017,0.03-0.017,0.03l12.705,19.769H81.916L68.283,46.538h-0.026v23.293h-9.733V17.257L58.523,17.257z
		 M68.256,43.375h6.252c8.028,0,9.378-5.881,9.378-8.652c0-2.913-1.776-8.373-9.378-8.373h-6.252V43.375L68.256,43.375z
		 M149.888,61.874v7.957h32.823v-9.094h-21.314l20.675-35.026v-8.454h-31.36v9.094h19.283L149.888,61.874L149.888,61.874z
		 M219.226,17.257h11.084l21.74,38.223h0.142V17.257h9.733v52.574h-10.87l-21.953-38.223h-0.142v38.223h-9.734V17.257
		L219.226,17.257z M27.884,69.831h9.733V48.304h17.258V39.21H37.617V26.351h18.04v-9.094H27.884V69.831L27.884,69.831z
		 M186.632,17.257h28.277v9.094h-18.544V39.21h17.762v9.094h-17.762v12.434h18.544v9.094h-28.277V17.257L186.632,17.257z
		 M175.23,125.562h9.733V99.689h0.142l16.412,25.873h11.439l-17.43-26.592l17.43-25.982h-11.439L185.105,98.46h-0.142V72.988h-9.733
		V125.562L175.23,125.562z M215.868,72.988h28.276v9.094h-18.544v12.859h17.762v9.094h-17.762v12.434h18.544v9.094h-28.276V72.988
		L215.868,72.988z M276.858,110.501c0.569,11.58,10.373,16.127,17.123,16.127c8.241,0,17.052-5.4,17.052-16.768
		c0-11.438-9.45-14.777-13.783-16.199c-5.329-1.775-8.739-2.77-8.739-7.316c0-3.127,2.344-5.33,5.399-5.33
		c2.629,0,5.471,1.209,5.896,5.898h9.947c-0.497-10.729-9.449-14.992-15.56-14.992c-8.881,0-15.418,6.607-15.418,14.992
		c0,11.082,8.455,13.57,12.505,15.133c6.536,2.486,10.018,3.48,10.018,8.881c0,3.979-3.41,6.607-7.246,6.607
		c-2.984,0-6.466-1.775-6.963-7.033H276.858L276.858,110.501z M257.845,82.082h-9.733v-9.094h29.271v9.094h-9.804v43.48h-9.734
		V82.082L257.845,82.082z M27.884,125.562h9.733v-23.293h0.026l13.633,23.293h12.202l-12.706-19.768c0,0-0.526,0.117,0.018-0.031
		c2.217-0.604,4.636-1.533,7.146-3.93c3.765-3.625,5.044-9.094,5.044-12.576c0-6.039-3.197-10.301-6.181-12.717
		s-6.75-3.553-12.789-3.553H27.884V125.562L27.884,125.562z M37.617,82.082h6.252c7.602,0,9.378,5.461,9.378,8.373
		c0,2.771-1.35,8.652-9.378,8.652h-6.252V82.082L37.617,82.082z M173.222,110.787c-4.12,9.662-14.315,15.842-24.404,15.842
		c-15.204,0-27.424-12.719-27.424-27.566c0-14.494,12.007-27.141,27.211-27.141c8.739,0,19.825,4.68,24.869,16.189l-11.336,0.004
		c-3.72-4.283-8.142-6.879-13.898-6.879c-8.424,0-16.917,7.58-16.917,17.969c0,9.758,8.072,18.111,17.268,18.111
		c6.949,0,10.739-4.072,13.056-6.529H173.222L173.222,110.787z M64.372,99.417c0,15.062,12.362,27.211,27.495,27.211
		c15.134,0,27.496-12.148,27.496-27.211c0-15.559-12.575-27.496-27.496-27.496C76.948,71.921,64.372,83.859,64.372,99.417
		L64.372,99.417z M74.319,99.345c0-9.967,7.792-18.109,17.548-18.109c9.758,0,17.548,8.143,17.548,18.109
		c0,9.617-7.651,17.971-17.548,17.971C81.97,117.316,74.319,108.962,74.319,99.345L74.319,99.345z"/>
</g>
<rect x="24.033" y="12.443" fill="none" width="291.121" height="118.746"/>
</svg>
